<svg width="56" height="56" fill="none" xmlns="http://www.w3.org/2000/svg"><g clip-path="url(#clip0_2_74)" fill="#19BCE4"><path d="M10.5 22.64h1.64c.605 0 1.094-.489 1.094-1.093v-1.64c0-.605-.49-1.094-1.093-1.094H10.5c-.604 0-1.094.49-1.094 1.094v1.64c0 .604.49 1.094 1.094 1.094zm0 6.563h1.64c.605 0 1.094-.49 1.094-1.093v-1.641c0-.605-.49-1.094-1.093-1.094H10.5c-.604 0-1.094.49-1.094 1.094v1.64c0 .604.49 1.094 1.094 1.094zm0 6.563h1.64c.605 0 1.094-.49 1.094-1.094v-1.64c0-.605-.49-1.094-1.093-1.094H10.5c-.604 0-1.094.49-1.094 1.093v1.64c0 .605.49 1.095 1.094 1.095zm0 6.562h1.64c.605 0 1.094-.49 1.094-1.094v-1.64c0-.604-.49-1.094-1.093-1.094H10.5c-.604 0-1.094.49-1.094 1.094v1.64c0 .604.49 1.094 1.094 1.094zm5.742-19.688h1.64c.605 0 1.095-.489 1.095-1.093v-1.64c0-.605-.49-1.094-1.094-1.094h-1.64c-.605 0-1.095.49-1.095 1.094v1.64c0 .604.49 1.094 1.094 1.094zm0 6.563h1.64c.605 0 1.095-.49 1.095-1.093v-1.641c0-.605-.49-1.094-1.094-1.094h-1.64c-.605 0-1.095.49-1.095 1.094v1.64c0 .604.49 1.094 1.094 1.094zm0 6.563h1.64c.605 0 1.095-.49 1.095-1.094v-1.64c0-.605-.49-1.094-1.094-1.094h-1.64c-.605 0-1.095.49-1.095 1.093v1.64c0 .605.49 1.095 1.094 1.095zm0 6.562h1.64c.605 0 1.095-.49 1.095-1.094v-1.64c0-.604-.49-1.094-1.094-1.094h-1.64c-.605 0-1.095.49-1.095 1.094v1.64c0 .604.49 1.094 1.094 1.094zm5.742-19.688h1.64c.604 0 1.094-.489 1.094-1.093v-1.64c0-.605-.49-1.094-1.094-1.094h-1.64c-.604 0-1.094.49-1.094 1.094v1.64c0 .604.49 1.094 1.094 1.094zm0 6.563h1.64c.604 0 1.094-.49 1.094-1.093v-1.641c0-.605-.49-1.094-1.094-1.094h-1.64c-.604 0-1.094.49-1.094 1.094v1.64c0 .604.49 1.094 1.094 1.094zm0 6.563h1.64c.604 0 1.094-.49 1.094-1.094v-1.64c0-.605-.49-1.094-1.094-1.094h-1.64c-.604 0-1.094.49-1.094 1.093v1.64c0 .605.49 1.095 1.094 1.095zm0 6.562h1.64c.604 0 1.094-.49 1.094-1.094v-1.64c0-.604-.49-1.094-1.094-1.094h-1.64c-.604 0-1.094.49-1.094 1.094v1.64c0 .604.49 1.094 1.094 1.094zM32.375 22.64h1.64c.605 0 1.094-.489 1.094-1.093v-1.64c0-.605-.49-1.094-1.094-1.094h-1.64c-.604 0-1.094.49-1.094 1.094v1.64c0 .604.49 1.094 1.094 1.094zm0-6.562h1.64c.605 0 1.094-.49 1.094-1.093v-1.64c0-.605-.49-1.095-1.094-1.095h-1.64c-.604 0-1.094.49-1.094 1.094v1.64c0 .604.49 1.094 1.094 1.094zm0-6.562h1.64c.605 0 1.094-.49 1.094-1.093V6.782c0-.604-.49-1.094-1.094-1.094h-1.64c-.604 0-1.094.49-1.094 1.094v1.64c0 .605.49 1.094 1.094 1.094zm0 19.687h1.64c.605 0 1.094-.49 1.094-1.093v-1.641c0-.605-.49-1.094-1.094-1.094h-1.64c-.604 0-1.094.49-1.094 1.094v1.64c0 .604.49 1.094 1.094 1.094zm0 6.563h1.64c.605 0 1.094-.49 1.094-1.094v-1.64c0-.605-.49-1.094-1.094-1.094h-1.64c-.604 0-1.094.49-1.094 1.093v1.64c0 .605.49 1.095 1.094 1.095zm0 6.562h1.64c.605 0 1.094-.49 1.094-1.094v-1.64c0-.604-.49-1.094-1.094-1.094h-1.64c-.604 0-1.094.49-1.094 1.094v1.64c0 .604.49 1.094 1.094 1.094zm5.742-19.688h1.64c.605 0 1.094-.489 1.094-1.093v-1.64c0-.605-.49-1.094-1.093-1.094h-1.641c-.604 0-1.094.49-1.094 1.094v1.64c0 .604.49 1.094 1.094 1.094zm0-6.562h1.64c.605 0 1.094-.49 1.094-1.093v-1.64c0-.605-.49-1.095-1.093-1.095h-1.641c-.604 0-1.094.49-1.094 1.094v1.64c0 .604.49 1.094 1.094 1.094zm0-6.562h1.64c.605 0 1.094-.49 1.094-1.093V6.782c0-.604-.49-1.094-1.093-1.094h-1.641c-.604 0-1.094.49-1.094 1.094v1.64c0 .605.49 1.094 1.094 1.094zm0 19.687h1.64c.605 0 1.094-.49 1.094-1.093v-1.641c0-.605-.49-1.094-1.093-1.094h-1.641c-.604 0-1.094.49-1.094 1.094v1.64c0 .604.49 1.094 1.094 1.094zm0 6.563h1.64c.605 0 1.094-.49 1.094-1.094v-1.64c0-.605-.49-1.094-1.093-1.094h-1.641c-.604 0-1.094.49-1.094 1.093v1.64c0 .605.49 1.095 1.094 1.095zm0 6.562h1.64c.605 0 1.094-.49 1.094-1.094v-1.64c0-.604-.49-1.094-1.093-1.094h-1.641c-.604 0-1.094.49-1.094 1.094v1.64c0 .604.49 1.094 1.094 1.094zM43.86 22.64h1.64c.604 0 1.093-.489 1.093-1.093v-1.64c0-.605-.49-1.094-1.093-1.094h-1.64c-.605 0-1.095.49-1.095 1.094v1.64c0 .604.49 1.094 1.094 1.094zm0-6.562h1.64c.604 0 1.093-.49 1.093-1.093v-1.64c0-.605-.49-1.095-1.093-1.095h-1.64c-.605 0-1.095.49-1.095 1.094v1.64c0 .604.49 1.094 1.094 1.094zm0-6.562h1.64c.604 0 1.093-.49 1.093-1.093V6.782c0-.604-.49-1.094-1.093-1.094h-1.64c-.605 0-1.095.49-1.095 1.094v1.64c0 .605.49 1.094 1.094 1.094zm0 19.687h1.64c.604 0 1.093-.49 1.093-1.093v-1.641c0-.605-.49-1.094-1.093-1.094h-1.64c-.605 0-1.095.49-1.095 1.094v1.64c0 .604.49 1.094 1.094 1.094zm0 6.563h1.64c.604 0 1.093-.49 1.093-1.094v-1.64c0-.605-.49-1.094-1.093-1.094h-1.64c-.605 0-1.095.49-1.095 1.093v1.64c0 .605.49 1.095 1.094 1.095zm0 6.562h1.64c.604 0 1.093-.49 1.093-1.094v-1.64c0-.604-.49-1.094-1.093-1.094h-1.64c-.605 0-1.095.49-1.095 1.094v1.64c0 .604.49 1.094 1.094 1.094zm-31.198 7.11a1.094 1.094 0 000 2.187h.026a1.094 1.094 0 100-2.187h-.026zm21.875 0a1.094 1.094 0 000 2.187h.026a1.094 1.094 0 100-2.187h-.026zM1.12 53.812h-.026a1.094 1.094 0 000 2.188h.026a1.094 1.094 0 000-2.188zm53.787 0h-.026a1.094 1.094 0 000 2.188h.026a1.094 1.094 0 100-2.188z"/><path d="M51.738 53.813h-.77V1.093C50.968.49 50.478 0 49.874 0H28c-.604 0-1.094.49-1.094 1.094v13.344H6.125c-.604 0-1.094.49-1.094 1.094v38.28h-.77a1.094 1.094 0 000 2.188h47.478a1.094 1.094 0 000-2.188zm-29.207 0h-4.375v-4.375h4.375v4.374zm4.375 0h-2.187v-5.469c0-.604-.49-1.094-1.094-1.094h-6.563c-.604 0-1.094.49-1.094 1.094v5.468h-8.75v-2.187H9.52a1.094 1.094 0 000-2.187h-2.3V16.625h19.687v37.188zm17.5 0H40.03v-4.375h4.375v4.374zm4.375 0h-2.188v-5.469c0-.604-.49-1.094-1.093-1.094h-6.563c-.604 0-1.093.49-1.093 1.094v5.468h-8.75v-2.187h2.3a1.094 1.094 0 100-2.187h-2.3V2.188H48.78v51.624z"/></g><defs><clipPath id="clip0_2_74"><path fill="#fff" d="M0 0h56v56H0z"/></clipPath></defs></svg>