<svg width="56" height="56" fill="none" xmlns="http://www.w3.org/2000/svg"><path d="M7.162 14.325a3.542 3.542 0 003.538-3.539 3.542 3.542 0 00-3.538-3.538 3.542 3.542 0 00-3.538 3.538 3.542 3.542 0 003.538 3.539zm0-5.436a1.9 1.9 0 011.898 1.897 1.9 1.9 0 01-1.898 1.898 1.9 1.9 0 01-1.898-1.898A1.9 1.9 0 017.162 8.89zm0 14.495a3.542 3.542 0 003.538-3.538 3.542 3.542 0 00-3.538-3.538 3.542 3.542 0 00-3.538 3.538 3.542 3.542 0 003.538 3.538zm0-5.436a1.9 1.9 0 011.898 1.898 1.9 1.9 0 01-1.898 1.898 1.9 1.9 0 01-1.898-1.898 1.9 1.9 0 011.898-1.898z" fill="#19BCE4"/><path d="M53.43 3.624h-2.866V1.726C50.564.774 49.79 0 48.838 0H7.162C6.21 0 5.436.774 5.436 1.726v1.898H2.57A2.573 2.573 0 000 6.194v2.952a.82.82 0 101.64 0V6.194a.93.93 0 01.93-.93h9.184a.93.93 0 01.93.93v8.302h-.086a.82.82 0 100 1.64h.086v8.302a.93.93 0 01-.93.93H2.57a.93.93 0 01-.93-.93v-8.302h.086a.82.82 0 100-1.64h-.085v-2.07a.82.82 0 10-1.641 0v12.012a2.573 2.573 0 002.57 2.57h1.96v1.984h-.992c-.952 0-1.726.774-1.726 1.726v1.812c0 .952.774 1.726 1.726 1.726h.086v6.234L.087 47.565l-.008.017a.798.798 0 00-.078.33l-.001.02v2.718c0 .952.774 1.726 1.726 1.726h.086v1.898c0 .952.774 1.726 1.726 1.726h32.787a.82.82 0 100-1.64h-5.697c.001-.03.004-.057.004-.086v-1.898h21.915v1.898a.086.086 0 01-.085.085H39.606a.82.82 0 100 1.641h12.856c.952 0 1.726-.774 1.726-1.726v-1.898h.086c.952 0 1.726-.774 1.726-1.726v-2.718l-.001-.02a.81.81 0 00-.003-.051l-.003-.033a.897.897 0 00-.04-.167l-.011-.03a.755.755 0 00-.021-.048l-.008-.018-3.537-7.075v-6.234h.086c.952 0 1.726-.774 1.726-1.726v-1.812c0-.952-.774-1.726-1.726-1.726h-.992v-1.984h1.96a2.573 2.573 0 002.57-2.57V6.194a2.573 2.573 0 00-2.57-2.57zm-46.353 0V1.726c0-.047.038-.085.085-.085h41.676c.047 0 .085.038.085.085v1.898H7.077zm39.129 23.384v1.984h-6.514v-1.984h6.514zm7.646 20.103h-23.22v-.991A2.635 2.635 0 0028 43.487H13.504a2.635 2.635 0 00-2.632 2.633v.991H2.148l2.803-5.607H51.05l2.803 5.607zm-24.86-7.247h-1.984V37.88h1.984v1.984zm.82-3.624H18.878a.93.93 0 01-.93-.93V20.69a.93.93 0 01.93-.93h18.244a.93.93 0 01.93.93v14.62a.93.93 0 01-.93.93h-7.31zm9.88-10.872v-1.984h1.983v1.054c0 .328.063.641.175.93h-2.158zM41.85 5.265a2.555 2.555 0 00-.174.93v15.549h-1.984V20.69a2.573 2.573 0 00-2.57-2.57H18.878a2.573 2.573 0 00-2.57 2.57v1.054h-1.983V6.194c0-.328-.063-.64-.175-.93h27.7zM14.324 24.438v-1.054h1.984v1.984H14.15c.112-.289.175-.602.175-.93zm-2.57 2.57h4.554v1.984H9.795v-1.984h1.959zm-5.583 0h1.983v1.984H6.17v-1.984zM3.452 32.53v-1.812c0-.047.038-.086.085-.086h12.77v1.984H3.538a.086.086 0 01-.085-.086zm12.855 1.726v1.054a2.573 2.573 0 002.57 2.57h6.49v1.984H5.265v-5.608h11.043zM1.64 50.65v-1.898h9.23v1.983H1.727a.086.086 0 01-.085-.085zm1.812 3.624v-1.898h7.419v1.898c0 .029.003.057.004.085H3.538a.086.086 0 01-.085-.085zm16.307.085v-1.983h1.984v1.983H19.76zm2.804-3.623h-4.561a.055.055 0 01-.055-.055v-1.874c0-.03.025-.055.055-.055H23.5c.03 0 .055.025.055.055v1.874c0 .03-.025.055-.055.055h-.937zm.82 3.623v-1.983h.117c.935 0 1.695-.76 1.695-1.695v-1.874c0-.935-.76-1.696-1.695-1.696h-5.498c-.935 0-1.695.76-1.695 1.696v1.874c0 .935.76 1.695 1.695 1.695h.117v1.983h-5.522a.086.086 0 01-.086-.085V46.12c0-.547.445-.992.992-.992H28c.547 0 .992.445.992.992v8.154a.086.086 0 01-.086.085h-5.522zm30.975-3.71a.086.086 0 01-.085.087H30.632v-1.984H54.36v1.898zm-3.623-10.785H30.632V37.88h6.49a2.573 2.573 0 002.57-2.57v-1.054h11.044v5.608zm1.811-9.146v1.812a.086.086 0 01-.085.086h-12.77v-1.984h12.77c.047 0 .085.039.085.086zm-2.718-1.726h-1.983v-1.984h1.983v1.984zm3.6-3.624h-9.183a.93.93 0 01-.93-.93v-8.301h.086a.82.82 0 100-1.641h-.086V6.194a.93.93 0 01.93-.93h9.184a.93.93 0 01.93.93v8.302h-.086a.82.82 0 100 1.64h.085v8.302a.93.93 0 01-.93.93z" fill="#19BCE4"/><path d="M48.837 7.248a3.542 3.542 0 00-3.538 3.538 3.542 3.542 0 003.538 3.539 3.542 3.542 0 003.538-3.538 3.542 3.542 0 00-3.538-3.539zm0 5.436a1.9 1.9 0 01-1.898-1.898 1.9 1.9 0 011.898-1.897 1.9 1.9 0 011.898 1.897 1.9 1.9 0 01-1.898 1.898zm0 3.624a3.542 3.542 0 00-3.538 3.538 3.542 3.542 0 003.538 3.539 3.542 3.542 0 003.538-3.539 3.542 3.542 0 00-3.538-3.538zm0 5.436a1.9 1.9 0 01-1.898-1.898 1.9 1.9 0 011.898-1.898 1.9 1.9 0 011.898 1.898 1.9 1.9 0 01-1.898 1.898zm-14.464 0H21.627c-.935 0-1.695.76-1.695 1.695v9.122c0 .935.76 1.696 1.695 1.696h12.746c.935 0 1.695-.761 1.695-1.696V23.44c0-.934-.76-1.695-1.695-1.695zm.055 10.817c0 .03-.025.055-.055.055H21.627a.055.055 0 01-.054-.055V23.44c0-.03.024-.054.054-.054h12.746c.03 0 .055.024.055.054v9.122zM9.88 37.88h1.813a.82.82 0 100-1.64H9.88a.82.82 0 100 1.64zm34.428 0h1.812a.82.82 0 100-1.64h-1.812a.82.82 0 100 1.64zm-7.248 7.248h1.812a.82.82 0 100-1.64H37.06a.82.82 0 100 1.64zm7.248 0h1.812a.82.82 0 100-1.64h-1.812a.82.82 0 100 1.64z" fill="#19BCE4"/></svg>