<svg width="56" height="56" fill="none" xmlns="http://www.w3.org/2000/svg"><g clip-path="url(#clip0_2_53)" fill="#19BCE4"><path d="M55.959 24.459l-3.734-12.134a.933.933 0 00-.892-.658h-18.28L22.126.74a.933.933 0 00-1.32 0L9.88 11.667H4.666a.933.933 0 00-.892.658L.041 24.46a.933.933 0 00.892 1.208h2.8V54.6c0 .515.418.933.933.933h46.667a.933.933 0 00.933-.933V25.667h2.8a.934.934 0 00.892-1.208zM9.333 53.667H5.6v-28h3.733v28zm0-29.867H2.196l3.16-10.267h3.977V23.8zM25.2 53.667h-7.467V38.733H25.2v14.934zm6.533-28.934v28.934h-4.667V37.8a.933.933 0 00-.933-.933H16.8a.933.933 0 00-.934.933v15.867H11.2V12.986L21.467 2.72l10.266 10.266v11.747zM50.4 53.667H33.6v-28h16.8v28zm.933-29.867H33.6V13.533h17.044L53.803 23.8h-2.47z"/><path d="M48.533 30.333h-4.666a.933.933 0 00-.934.934v15.866c0 .516.418.934.934.934h4.666a.933.933 0 00.934-.934V31.267a.933.933 0 00-.934-.934zM47.6 46.2h-2.8v-14h2.8v14zm-7.467-15.867h-4.666a.933.933 0 00-.934.934v15.866c0 .516.418.934.934.934h4.666a.933.933 0 00.934-.934V31.267a.933.933 0 00-.934-.934zM39.2 46.2h-2.8v-14h2.8v14zM26.134 12.6H16.8a.933.933 0 00-.933.933V23.8c0 .515.418.933.933.933h9.334a.933.933 0 00.933-.933V13.533a.933.933 0 00-.933-.933zM25.2 22.866h-7.466v-8.4H25.2v8.4z"/></g><defs><clipPath id="clip0_2_53"><path fill="#fff" d="M0 0h56v56H0z"/></clipPath></defs></svg>