<svg width="40" height="40" fill="none" xmlns="http://www.w3.org/2000/svg"><g clip-path="url(#clip0_2_218)" fill="#19BCE4"><path d="M20.594 8.13a.907.907 0 00-1.188 0L5.705 19.946a.91.91 0 00-.315.689v17.09c0 .504.407.91.909.91H33.7a.909.909 0 00.91-.91v-17.09a.91.91 0 00-.316-.69L20.594 8.13zm12.198 28.688H7.208V21.051L20 10.016l12.792 11.035v15.767z"/><path d="M39.367 17.438L21.186 1.803a1.821 1.821 0 00-2.372 0L.633 17.438a1.819 1.819 0 002.37 2.757L20 5.58l16.996 14.616a1.812 1.812 0 002.564-.193 1.819 1.819 0 00-.193-2.564z"/><path d="M15.59 18.358c-2.233 0-4.745 1.22-5.1 4.642-.71 6.863 8.888 12.005 9.295 12.222a.461.461 0 00.426 0c.408-.217 10.005-5.359 9.297-12.222-.354-3.422-2.866-4.642-5.1-4.642-1.582 0-3.2.56-4.41 1.512-1.21-.951-2.828-1.512-4.409-1.512z"/></g><defs><clipPath id="clip0_2_218"><path fill="#fff" d="M0 0h40v40H0z"/></clipPath></defs></svg>